<svg xmlns="http://www.w3.org/2000/svg" fill="none" viewBox="0 0 201 200">
    <path
        fill-rule="evenodd"
        clip-rule="evenodd"
        d="M175.691 129.776C186.089 126.735 195.636 136.01 190.631 145.618C173.811 177.908 139.691 200 100.336 200C79.4062 200 59.9575 193.751 43.8039 183.042C34.7006 177.008 38.6451 164.16 49.3227 161.864C74.0133 156.553 101.339 150.024 129.61 142.567C145.787 138.301 161.235 134.004 175.691 129.776ZM146.21 20.1205C150.805 17.0097 156.847 16.7608 161.302 20.0683C180.773 34.523 194.793 55.7305 199.781 80.1611C201.2 87.1113 196.252 93.4916 189.304 94.9238C161.599 100.635 129.936 108.066 96.9885 116.756C68.7208 124.211 42.6814 131.756 20.2685 138.868C13.56 140.997 6.17426 137.928 3.94792 131.251C2.28265 126.257 1.00566 121.089 0.152146 115.783C-0.73082 110.293 2.30803 105.039 7.2253 102.443C25.1354 92.9885 44.1601 82.4985 63.5588 71.3135C95.6139 52.831 124.018 35.1447 146.21 20.1205ZM100.336 0C107.58 0 108.925 8.87909 102.462 12.1486C78.478 24.2803 51.5924 38.8098 23.9465 54.75C17.5799 58.4209 10.7965 52.3952 14.7938 46.2284C32.8121 18.4307 64.3905 6.78138e-05 100.336 0Z"
        fill="#A36AF3"
    />
</svg>
